<?xml version="1.0" encoding="UTF-8"?>
<svg xmlns="http://www.w3.org/2000/svg" xmlns:xlink="http://www.w3.org/1999/xlink" viewBox="0 0 3710 3710">
  <defs>
    <style>
      .cls-1 {
        fill: #26264f;
      }

      .cls-2 {
        fill: url(#linear-gradient-2);
      }

      .cls-3, .cls-4, .cls-5 {
        fill: #fff;
      }

      .cls-6 {
        fill: url(#linear-gradient-17);
      }

      .cls-4 {
        opacity: .5;
      }

      .cls-4, .cls-5 {
        mix-blend-mode: soft-light;
      }

      .cls-7, .cls-8 {
        fill: #97a6b7;
      }

      .cls-9 {
        fill: #b6d8db;
      }

      .cls-10 {
        fill: url(#linear-gradient-10);
      }

      .cls-10, .cls-11, .cls-12, .cls-13, .cls-8, .cls-14 {
        mix-blend-mode: multiply;
      }

      .cls-15 {
        fill: url(#linear-gradient-18);
      }

      .cls-16 {
        fill: #e2e2e2;
      }

      .cls-11 {
        fill: #787878;
        opacity: .4;
      }

      .cls-17 {
        fill: #007706;
      }

      .cls-18 {
        fill: url(#linear-gradient-14);
      }

      .cls-19 {
        fill: url(#linear-gradient-20);
      }

      .cls-20 {
        fill: url(#linear-gradient-6);
      }

      .cls-21 {
        isolation: isolate;
      }

      .cls-12 {
        opacity: .6;
      }

      .cls-12, .cls-22 {
        fill: #d8dee8;
      }

      .cls-13 {
        fill: url(#linear-gradient-15);
      }

      .cls-13, .cls-8, .cls-14 {
        opacity: .3;
      }

      .cls-23 {
        fill: #3b966c;
      }

      .cls-24 {
        fill: url(#linear-gradient-11);
      }

      .cls-25 {
        fill: url(#linear-gradient-16);
      }

      .cls-26 {
        opacity: .3;
      }

      .cls-26, .cls-27 {
        fill: #006868;
      }

      .cls-28 {
        fill: url(#linear-gradient-21);
      }

      .cls-29 {
        fill: url(#linear-gradient-5);
      }

      .cls-30 {
        clip-path: url(#clippath);
      }

      .cls-31 {
        fill: none;
      }

      .cls-32 {
        fill: url(#linear-gradient-7);
      }

      .cls-33 {
        fill: url(#linear-gradient-24);
      }

      .cls-34 {
        fill: url(#linear-gradient-9);
      }

      .cls-35 {
        fill: url(#linear-gradient-22);
      }

      .cls-36 {
        fill: url(#linear-gradient-3);
      }

      .cls-37 {
        fill: url(#linear-gradient);
      }

      .cls-14 {
        fill: #296d2c;
      }

      .cls-38 {
        fill: url(#linear-gradient-23);
      }

      .cls-39 {
        fill: url(#linear-gradient-19);
      }

      .cls-40 {
        fill: url(#linear-gradient-4);
      }

      .cls-41 {
        fill: url(#linear-gradient-8);
      }

      .cls-42 {
        fill: url(#linear-gradient-12);
      }

      .cls-43 {
        fill: url(#linear-gradient-13);
      }
    </style>
    <linearGradient id="linear-gradient" x1="751.25" y1="1822.15" x2="2588.22" y2="1822.15" gradientUnits="userSpaceOnUse">
      <stop offset="0" stop-color="#444b8c"/>
      <stop offset="1" stop-color="#26264f"/>
    </linearGradient>
    <linearGradient id="linear-gradient-2" x1="1280.87" y1="696.98" x2="2199.7" y2="696.98" xlink:href="#linear-gradient"/>
    <clipPath id="clippath">
      <path class="cls-31" d="m1579.64,1286.93c-3.1,126.96-108.26,231.6-239.13,235.17-135.74,3.7-249.35-101.99-249.09-237.72.27-137.44,116.86-245.67,255.55-240.34,133.6,5.14,235.79,114.43,232.66,242.89Z"/>
    </clipPath>
    <linearGradient id="linear-gradient-3" x1="1333.53" y1="1306.87" x2="1334.49" y2="1492.72" gradientUnits="userSpaceOnUse">
      <stop offset="0" stop-color="#f36f56"/>
      <stop offset="1" stop-color="#ffc444"/>
    </linearGradient>
    <linearGradient id="linear-gradient-4" x1="1363.54" y1="1047.54" x2="1316.09" y2="1340.61" xlink:href="#linear-gradient-3"/>
    <linearGradient id="linear-gradient-5" x1="1338.79" y1="1107.3" x2="1315.51" y2="1251.07" xlink:href="#linear-gradient"/>
    <linearGradient id="linear-gradient-6" x1="1440.34" y1="1063.4" x2="1393.48" y2="1352.77" xlink:href="#linear-gradient-3"/>
    <linearGradient id="linear-gradient-7" x1="1290.92" y1="1032.93" x2="1242.89" y2="1329.6" xlink:href="#linear-gradient-3"/>
    <linearGradient id="linear-gradient-8" x1="2482.68" y1="3377.34" x2="1512.49" y2="3102.8" gradientTransform="translate(191.04 -600.02) rotate(12.04)" gradientUnits="userSpaceOnUse">
      <stop offset="0" stop-color="#089447"/>
      <stop offset="1" stop-color="#173f1d"/>
    </linearGradient>
    <linearGradient id="linear-gradient-9" x1="999.76" y1="2413.64" x2="1014.64" y2="3614.87" gradientUnits="userSpaceOnUse">
      <stop offset="0" stop-color="#008056"/>
      <stop offset=".08" stop-color="#009479"/>
      <stop offset="1" stop-color="#006b3c"/>
    </linearGradient>
    <linearGradient id="linear-gradient-10" x1="2586.2" y1="3546.6" x2="2597.9" y2="3546.6" gradientTransform="translate(-188.57 -623.39)" gradientUnits="userSpaceOnUse">
      <stop offset="0" stop-color="#aa80f9"/>
      <stop offset="1" stop-color="#6165d7"/>
    </linearGradient>
    <linearGradient id="linear-gradient-11" x1="537.72" y1="2962.94" x2="557.01" y2="3208.43" gradientTransform="translate(1942.08 3.37) rotate(-.14)" gradientUnits="userSpaceOnUse">
      <stop offset="0" stop-color="#311944"/>
      <stop offset="1" stop-color="#a03976"/>
    </linearGradient>
    <linearGradient id="linear-gradient-12" x1="587.51" y1="3099.61" x2="584.01" y2="2845.36" gradientTransform="translate(1942.08 3.37) rotate(-.14)" gradientUnits="userSpaceOnUse">
      <stop offset="0" stop-color="#ffc444"/>
      <stop offset="1" stop-color="#f36f56"/>
    </linearGradient>
    <linearGradient id="linear-gradient-13" x1="902.22" y1="2934.31" x2="921.51" y2="3179.79" xlink:href="#linear-gradient-11"/>
    <linearGradient id="linear-gradient-14" x1="921.56" y1="3095.01" x2="918.06" y2="2840.75" xlink:href="#linear-gradient-12"/>
    <linearGradient id="linear-gradient-15" x1="526.83" y1="2687.74" x2="714.82" y2="2687.74" gradientTransform="translate(1942.08 3.37) rotate(-.14)" gradientUnits="userSpaceOnUse">
      <stop offset="0" stop-color="#444b8c"/>
      <stop offset="1" stop-color="#3e4177"/>
    </linearGradient>
    <linearGradient id="linear-gradient-16" x1="7.85" y1="1904.67" x2="-32.31" y2="2258.93" gradientTransform="translate(2736.88)" xlink:href="#linear-gradient-12"/>
    <linearGradient id="linear-gradient-17" x1="1886.67" y1="2709.73" x2="1822.17" y2="2545.91" gradientTransform="translate(1010.88 -907.3) rotate(2.72)" xlink:href="#linear-gradient-15"/>
    <linearGradient id="linear-gradient-18" x1="-17.16" y1="1765.68" x2="14.39" y2="2026.72" gradientTransform="translate(2736.88)" xlink:href="#linear-gradient-12"/>
    <linearGradient id="linear-gradient-19" x1="1561.45" y1="2248.64" x2="2282.84" y2="2248.64" gradientTransform="translate(4525.34) rotate(-180) scale(1 -1)" xlink:href="#linear-gradient"/>
    <linearGradient id="linear-gradient-20" x1="-1429.29" y1="2396.67" x2="-629.21" y2="2396.67" gradientTransform="translate(3658.83 -199.1) rotate(17.34)" xlink:href="#linear-gradient"/>
    <linearGradient id="linear-gradient-21" x1="-4275.15" y1="2530.78" x2="-4678.01" y2="2079.72" gradientTransform="translate(-2986.78 603.68) rotate(167.86) scale(1 -1)" xlink:href="#linear-gradient"/>
    <linearGradient id="linear-gradient-22" x1="-4867.36" y1="1872.21" x2="-4320.98" y2="2473.68" gradientTransform="translate(-2986.78 603.68) rotate(167.86) scale(1 -1)" xlink:href="#linear-gradient"/>
    <linearGradient id="linear-gradient-23" x1="1611.75" y1="2338.82" x2="1761.91" y2="2795.44" gradientTransform="translate(4525.34) rotate(-180) scale(1 -1)" xlink:href="#linear-gradient-12"/>
    <linearGradient id="linear-gradient-24" x1="-1963.66" y1="5590.83" x2="-2169.64" y2="6008.52" gradientTransform="translate(8165.24 3052.13) rotate(79.95)" xlink:href="#linear-gradient-12"/>
  </defs>
  <g class="cls-21">
    <g id="Illustration">
      <g>
        <g>
          <g>
            <path class="cls-37" d="m2532.4,755.32l-1706.47-98.72c-39.3-1.92-74.68,40.97-74.68,76.98v2197.4c0,49.94,51.02,60,90.32,55.98l1690.83-172.68c30.89-3.15,55.82-31.42,55.82-63.14V815.48c0-31.72-24.93-58.66-55.82-60.17Z"/>
            <path class="cls-22" d="m2560.47,737.86l-1709.84-84.11c-39.3-1.93-71.31,25.91-71.31,62.21v2214.57c0,36.29,32.01,62.42,71.31,58.38l1709.84-175.99c30.89-3.18,55.82-31.66,55.82-63.63V798.5c0-31.97-24.94-59.12-55.82-60.63Z"/>
            <path class="cls-26" d="m850.63,2958.87c-21.2,2.14-38.49-12.03-38.49-31.58V717.43c0-19.56,17.29-34.65,38.49-33.65l1709.84,80.77c16.7.79,30.25,15.5,30.25,32.8v1954.45c0,17.3-13.55,32.74-30.25,34.42l-1709.84,172.64Z"/>
            <polygon class="cls-3" points="2450.27 2733.82 987.83 2874.72 987.83 835.94 2450.27 891.02 2450.27 2733.82"/>
            <path class="cls-8" d="m1865.34,901l-584.47,7.31,13.11-131.81c.99-17.13,13.37-31.19,29.67-33.69l98.98-15.21c11.65-1.79,21.69-9.49,26.78-20.55l10.73-23.31,258.9,15.99,146.29,201.28Z"/>
            <path class="cls-2" d="m2177.45,815.49c-2.77-14.91-14.72-25.38-29.77-26.05l-93.39-4.19c-42.39-1.9-73.46-36.34-71.91-79.95l3.6-101.08c.67-18.69-12.68-33.67-31.03-34.77l-30.68-1.83c-23.4-1.4-38.98-22.02-35.69-45.87,5.74-41.68-22.82-77.65-64.21-80.47-41.71-2.84-80.65,29.03-86.86,71.24-.92,6.27-3.04,12.47-6.49,18-9.64,15.46-26.53,23.97-43.07,22.99l-31.65-1.89c-19.18-1.15-37.4,12.32-42.26,31.26l-26.32,102.6c-11.38,44.37-54.32,76.44-99.91,74.39l-102.45-4.59c-16.78-.75-33.24,9.03-40.97,24.36l-61.73,122.5c-5.06,10.03,1.17,20.87,12.19,21.24l888.43,29.51c9.72.32,17.97-9.37,16.18-19.01l-22-118.37Zm-365.69-286.74c-12.24-.76-20.73-11.4-18.95-23.76,1.78-12.36,13.15-21.74,25.39-20.94,12.21.8,20.66,11.43,18.88,23.76-1.77,12.33-13.1,21.7-25.32,20.95Z"/>
            <path class="cls-7" d="m2182.71,818.23c-2.77-14.91-14.72-25.38-29.78-26.05l-93.39-4.19c-42.39-1.9-73.46-36.34-71.91-79.95l3.6-101.08c.67-18.69-12.68-33.67-31.03-34.77l-30.68-1.83c-23.4-1.4-38.98-22.02-35.69-45.87,5.74-41.68-22.82-77.65-64.21-80.47-41.71-2.84-80.65,29.03-86.86,71.24-.92,6.27-3.04,12.47-6.49,18-9.64,15.46-26.53,23.97-43.07,22.99l-31.65-1.89c-19.18-1.15-37.4,12.32-42.26,31.26l-26.32,102.6c-11.38,44.37-54.32,76.44-99.91,74.39l-102.45-4.59c-16.78-.75-33.24,9.03-40.97,24.36l-61.73,122.5c-5.06,10.03,1.17,20.87,12.19,21.24l888.43,29.51c9.72.32,17.97-9.37,16.18-19.01l-22-118.37Zm-365.69-286.74c-12.24-.76-20.73-11.4-18.95-23.76,1.78-12.36,13.15-21.74,25.39-20.94,12.21.8,20.66,11.43,18.88,23.76-1.77,12.33-13.1,21.7-25.32,20.95Z"/>
            <path class="cls-4" d="m2030.67,874.52c-79.25-48.92-140.06-14.23-189.45-69.41-52.87-59.07-17.21-136.83-71.92-173.53-35.02-23.49-66.27-2.77-107-9.13-14.91-2.33-30.83-8.26-47.37-19.81l-21.95,85.57c-11.38,44.37-54.32,76.44-99.91,74.4l-102.45-4.59c-16.78-.75-33.24,9.03-40.97,24.36l-61.73,122.5c-5.06,10.03,1.17,20.87,12.19,21.23l807.4,26.82c-20.34-32.3-45.6-59.12-76.84-78.4Z"/>
          </g>
          <g>
            <g>
              <path class="cls-16" d="m1340.01,1559.44c-157.41,5.09-290.58-117.38-290.58-275.29s136.69-286.36,298.08-279.28c154.54,6.78,272.32,134.1,268.46,282.25-3.81,146.15-125.08,267.44-275.97,272.33Z"/>
              <path class="cls-3" d="m1597.86,1287.02c-3.45,136.7-116.58,249.56-257.59,253.76-146.7,4.37-269.92-109.6-269.77-256.52.14-148.93,126.61-265.97,276.76-259.79,144.2,5.93,254.1,124.11,250.61,262.55Z"/>
              <g class="cls-30">
                <g>
                  <path class="cls-23" d="m1070.32,1464.17s240.27-137.55,523.32-9.73c0,0-38.25,111.48-253.89,124.45-229.08,13.78-269.43-114.72-269.43-114.72Z"/>
                  <path class="cls-36" d="m1301.84,1285.47l-9.61,64.22c-3.02,40.7-44.77,56.41-44.77,56.41,48.15,55.13,140.31,51.44,173.15-1.44-21.98-7.8-46.36-40.94-46.98-64.34l-1.45-54.49-70.35-.37Z"/>
                  <path class="cls-40" d="m1409.72,1229.53c-.89,54.04-34.94,111.88-76.19,111.98-41.72.1-75.33-58.78-74.8-113.96.53-55.46,35.3-85.06,77.39-84.01,41.61,1.03,74.5,31.68,73.6,85.99Z"/>
                  <path class="cls-29" d="m1256.32,1241.48c4.23-.6,8.46-1.2,12.68-1.8-1.89-4.54-9.69-24.7.42-42.11,9.71-16.71,32.22-24.5,49.27-23.04,19.32,1.65,30.78,10.6,40.53,4.04,5.48-3.68,7.34-10.54,8.03-15.9.38,3.44,1.27,8.55,3.69,14.21,6.92,16.24,18.97,19.8,25.38,30.52,4.31,7.21,6.99,19.18-.64,40.08,3.64-.17,7.28-.35,10.91-.52,4.03-11.73,8.9-28.38,12.1-48.81,4.76-30.4,8.05-51.36-3.86-61.92-2.38-2.11-12.92-10.51-38.65-3.54-5.92-6.33-18.46-17.99-37.97-24.27-6.77-2.18-40.44-13.01-70.77,7.41-20.67,13.91-37.02,40.49-32.03,62.88,2.63,11.81,10.06,17.23,16.42,40.02,2.68,9.6,3.88,17.65,4.46,22.76Z"/>
                  <path class="cls-20" d="m1399.06,1249.4s5.16-23.67,19.6-21.13c14.39,2.54-6.94,41.09-20,45.65l.39-24.52Z"/>
                  <path class="cls-32" d="m1268.02,1248.05s-4.72-24.24-19.86-22.04c-15.2,2.21,6.15,42.16,19.61,47.01l.25-24.97Z"/>
                </g>
              </g>
            </g>
            <g>
              <polygon class="cls-16" points="2404.99 1224.47 1803 1221.5 1803 1140.92 2404.99 1147.12 2404.99 1224.47"/>
              <polygon class="cls-16" points="2404.99 1321.99 1803 1323.11 1803 1263.55 2404.99 1264.82 2404.99 1321.99"/>
              <polygon class="cls-16" points="2404.99 1419.52 1803 1424.72 1803 1365.16 2404.99 1362.35 2404.99 1419.52"/>
            </g>
            <g>
              <polygon class="cls-9" points="1161.1 1762.57 1081.27 1765.09 1081.27 1676.96 1161.1 1674.9 1161.1 1762.57"/>
              <polygon class="cls-16" points="2404.99 1715.45 1220.96 1750.03 1220.96 1688.15 2404.99 1658.28 2404.99 1715.45"/>
            </g>
            <g>
              <polygon class="cls-9" points="1161.1 1897.72 1081.27 1900.97 1081.27 1812.84 1161.1 1810.05 1161.1 1897.72"/>
              <polygon class="cls-16" points="2404.99 1839.88 1220.96 1884.71 1220.96 1822.83 2404.99 1782.71 2404.99 1839.88"/>
            </g>
            <g>
              <polygon class="cls-9" points="1161.1 2029.22 1081.27 2033.18 1081.27 1948.71 1161.1 1945.21 1161.1 2029.22"/>
              <polygon class="cls-16" points="2404.99 1964.31 1220.96 2019.4 1220.96 1957.51 2404.99 1907.14 2404.99 1964.31"/>
            </g>
            <g>
              <polygon class="cls-9" points="1161.1 2164.37 1081.27 2169.05 1081.27 2084.59 1161.1 2080.36 1161.1 2164.37"/>
              <polygon class="cls-16" points="2404.99 2088.73 1220.96 2154.08 1220.96 2092.2 2404.99 2031.57 2404.99 2088.73"/>
            </g>
            <polygon class="cls-16" points="2404.99 2273.69 1087.93 2363.19 1087.93 2297.11 2404.99 2213.16 2404.99 2273.69"/>
            <polygon class="cls-16" points="2404.99 2388.03 1087.93 2487.99 1087.93 2425.59 2404.99 2330.86 2404.99 2388.03"/>
            <polygon class="cls-16" points="2404.99 2502.37 1087.93 2612.79 1087.93 2550.39 2404.99 2445.2 2404.99 2502.37"/>
            <polygon class="cls-16" points="2404.99 2616.71 1087.93 2737.59 1087.93 2675.19 2404.99 2559.54 2404.99 2616.71"/>
          </g>
        </g>
        <g>
          <path class="cls-41" d="m1195.75,2996.11c27.1,21.91,68.29,15.89,92.02-13.45,23.72-29.34,20.99-70.89-6.11-92.8-1.4-1.14-2.87-2.15-4.34-3.14,9.53-17,17.7-34.44,24.47-52.19,1.74.37,3.5.71,5.31.93,35.33,4.3,69.64-21.68,76.64-58.05,7-36.36-15.97-69.33-51.3-73.64-1.85-.22-3.69-.32-5.52-.38.21-18.72-1.02-37.3-3.66-55.6,1.79-.59,3.59-1.22,5.37-1.97,34.09-14.45,52.32-53.44,40.72-87.09-11.6-33.64-48.65-49.2-82.74-34.75-1.75.74-3.42,1.59-5.08,2.45-8.95-15.45-19.24-30.19-30.81-44.11,1.32-1.39,2.62-2.81,3.85-4.33,23.72-29.34,53.22-60.62,25.78-82.11-63.47-49.7-100.18-26.57-123.91,2.76-1.23,1.52-2.34,3.09-3.43,4.67-16.03-8.4-32.6-15.37-49.58-20.89.5-1.81.97-3.62,1.33-5.48,7-36.36,21.92-53.67-12.74-61.77-75.57-17.66-108.2,9.81-115.2,46.18-.37,1.9-.6,3.78-.81,5.66-18.45,1.25-36.88,3.94-55.14,8.06-.45-1.78-.92-3.56-1.53-5.32-11.6-33.64-48.65-49.2-82.74-34.75-34.09,14.45-52.32,53.44-40.72,87.09.59,1.72,1.3,3.37,2.02,4.99-15.94,10.33-31.28,21.98-45.91,34.85-1.27-1.24-2.57-2.45-3.98-3.59-27.1-21.91-68.29-15.89-92.02,13.45-23.72,29.34-20.99,70.89,6.11,92.8,1.4,1.14,2.87,2.15,4.34,3.14-9.53,17-17.7,34.44-24.47,52.19-1.74-.37-3.5-.71-5.31-.93-35.33-4.3-69.64,21.69-76.64,58.05-7,36.36,15.97,69.33,51.3,73.64,1.85.23,3.69.32,5.52.38-.21,18.72,1.02,37.3,3.66,55.6-1.79.59-3.59,1.22-5.37,1.97-34.09,14.45-52.32,53.45-40.72,87.09,11.6,33.64,68.12,60.18,102.21,45.73,1.75-.74-16.05-12.56-14.39-13.43,8.95,15.45,19.24,30.19,30.81,44.11-1.32,1.39-2.62,2.81-3.85,4.33-23.72,29.34-20.99,70.89,6.11,92.8,27.1,21.91,68.29,15.89,92.02-13.45,1.23-1.52,2.34-3.09,3.43-4.67,16.03,8.4,32.6,15.37,49.58,20.89-.5,1.81-.97,3.62-1.33,5.48-7,36.36,15.97,69.33,51.3,73.64,35.33,4.3,69.64-21.69,76.64-58.05.37-1.9.6-3.78.81-5.66,18.45-1.25,36.88-3.94,55.14-8.06.45,1.78.92,3.56,1.53,5.32,11.6,33.64,48.65,49.2,82.74,34.75,34.09-14.45,52.32-53.44,40.72-87.09-.59-1.72-1.3-3.36-2.02-4.99,15.94-10.33,31.28-21.98,45.91-34.85,1.27,1.24,2.57,2.45,3.98,3.59Zm-379.83-75.99c-98.38-79.55-108.31-230.39-22.17-336.92,86.14-106.53,235.72-128.39,334.1-48.85,98.38,79.55,108.31,230.39,22.17,336.92-86.14,106.53-235.72,128.39-334.1,48.84Z"/>
          <path d="m1307.1,2835.47c35.33,4.3,69.64-21.69,76.64-58.05,7-36.36-15.97-69.33-51.3-73.64-1.85-.23-3.69-.32-5.52-.38.21-18.72-1.02-37.3-3.66-55.6,1.79-.59,3.59-1.22,5.37-1.98,34.09-14.45,81.5-56.84,66.5-89.11-28.46-61.26-74.43-47.18-108.53-32.72-1.75.74-3.42,1.59-5.08,2.45-8.95-15.45-19.24-30.19-30.81-44.11,1.32-1.39,2.62-2.81,3.85-4.33,12.91-15.97,17.93-35.54,15.5-53.61-39.4,44.31-78.47,88.92-117.08,133.91,74.26,83.27,75.17,216.35-2.96,312.98-66.21,81.88-169.88,113.67-258.99,87.91-6.27,9.61-12.48,19.29-19.01,28.73-17.73,25.63-36.93,50.35-56.15,75.02,8.05,3.37,16.22,6.41,24.48,9.1-.5,1.81-.97,3.62-1.33,5.49-7,36.36,8.42,71.82,71.97,81.89,35.15,5.57,48.97-29.93,55.97-66.3.37-1.9.6-3.78.81-5.66,18.45-1.25,36.88-3.94,55.14-8.06.45,1.78.92,3.56,1.53,5.32,11.6,33.65,71.22,59.6,105.31,45.15,34.09-14.45,29.76-63.85,18.15-97.49-.59-1.72-1.3-3.37-2.02-4.99,15.94-10.33,31.28-21.97,45.91-34.85,1.27,1.24,2.57,2.46,3.98,3.59,27.1,21.91,68.29,15.89,92.02-13.45,23.72-29.34,20.99-70.89-6.11-92.79-1.4-1.14-2.87-2.15-4.34-3.14,9.53-17,17.7-34.44,24.47-52.19,1.74.37,3.5.71,5.31.93Z"/>
          <path class="cls-34" d="m1364.33,2714.47c-1.85-.22-3.69-.32-5.53-.38.21-18.72-1.02-37.3-3.66-55.6,1.79-.59,3.59-1.22,5.37-1.98,34.09-14.45,52.32-53.44,40.72-87.09-11.6-33.64-48.65-49.2-82.74-34.75-1.75.74-3.42,1.59-5.08,2.45-8.95-15.45-19.24-30.19-30.81-44.11,1.32-1.39,2.62-2.81,3.85-4.33,23.72-29.34,20.99-70.89-6.11-92.8-27.1-21.91-68.29-15.89-92.02,13.45-1.23,1.52-2.34,3.09-3.43,4.67-16.03-8.4-32.6-15.37-49.58-20.89.5-1.81.97-3.62,1.33-5.48,7-36.36-15.97-69.33-51.3-73.64-35.33-4.3-69.64,21.69-76.64,58.05-.36,1.9-.6,3.78-.81,5.66-18.45,1.25-36.88,3.94-55.14,8.06-.45-1.78-.92-3.56-1.53-5.32-11.6-33.64-48.65-49.2-82.74-34.75-34.1,14.45-52.33,53.45-40.72,87.09.59,1.72,1.3,3.37,2.02,4.99-15.94,10.33-31.28,21.97-45.91,34.85-1.27-1.24-2.57-2.46-3.98-3.59-27.1-21.91-68.29-15.89-92.02,13.45-23.72,29.34-20.99,70.89,6.11,92.8,1.4,1.14,2.87,2.15,4.34,3.14-9.53,17-17.7,34.44-24.47,52.19-1.74-.37-3.5-.71-5.31-.93-35.33-4.3-69.64,21.68-76.64,58.05-7,36.36,15.97,69.33,51.3,73.64,1.85.23,3.69.32,5.52.38-.21,18.72,1.02,37.3,3.66,55.6-1.79.59-3.59,1.22-5.37,1.97-34.09,14.45-52.33,53.45-40.72,87.09,11.6,33.64,48.65,49.2,82.74,34.75,1.75-.74,3.42-1.59,5.09-2.45,8.95,15.45,19.24,30.19,30.81,44.11-1.32,1.4-2.62,2.81-3.85,4.33-23.72,29.34-20.99,70.89,6.11,92.8,27.1,21.91,68.29,15.89,92.02-13.45,1.23-1.52,2.34-3.09,3.43-4.67,16.03,8.4,32.6,15.37,49.58,20.89-.5,1.81-.98,3.62-1.33,5.49-7,36.36,15.97,69.33,51.3,73.64,35.33,4.3,69.64-21.68,76.64-58.05.37-1.9.6-3.78.81-5.66,18.45-1.25,36.88-3.94,55.14-8.06.44,1.78.92,3.56,1.53,5.32,11.6,33.64,48.65,49.2,82.74,34.75,34.1-14.45,52.33-53.44,40.72-87.09-.59-1.72-1.3-3.36-2.02-4.99,15.94-10.33,31.28-21.97,45.91-34.85,1.27,1.23,2.57,2.45,3.98,3.59,27.1,21.91,68.29,15.89,92.02-13.45,23.72-29.34,20.99-70.89-6.11-92.8-1.4-1.13-2.87-2.15-4.34-3.14,9.53-17,17.7-34.44,24.47-52.19,1.74.37,3.5.71,5.31.93,35.33,4.3,69.64-21.68,76.64-58.05,7-36.36-15.97-69.33-51.3-73.64Zm-182.42,167.49c-86.14,106.53-235.72,128.39-334.1,48.85-98.38-79.55-108.31-230.39-22.17-336.92,86.14-106.53,235.72-128.39,334.1-48.84,98.38,79.55,108.31,230.39,22.17,336.92Z"/>
        </g>
        <g>
          <path class="cls-22" d="m2659.06,2946.71l-363.79,51.58c-10.31,1.46-19.85-5.71-21.31-16.02h0c-1.46-10.31,5.71-19.85,16.02-21.31l363.79-51.58c10.31-1.46,19.85,5.71,21.31,16.02h0c1.46,10.31-5.71,19.85-16.02,21.31Z"/>
          <path class="cls-22" d="m2672.04,2854.58h81.12c.93,0,1.69.76,1.69,1.69v42.72c0,.93-.76,1.69-1.69,1.69h-81.12v-46.1h0Z" transform="translate(-377.07 409.39) rotate(-8.07)"/>
          <path class="cls-1" d="m1281.79,3090.58l-33.92,4.81c-3.82.54-7.35-2.11-7.89-5.93h0c-.54-3.82,2.11-7.35,5.93-7.89l33.92-4.81,1.96,13.82Z"/>
          <path class="cls-22" d="m1261.22,3086.45h0c.99,7,6.76,12.33,13.82,12.77l145.58,9.1-12.36-87.2-137.32,49.21c-6.65,2.38-10.71,9.11-9.72,16.11Z"/>
          <path class="cls-5" d="m1269.64,3079.08h0c.27,1.92,5.42,2.87,12.33,2.29l140.89-24.01-3.39-23.88-138.63,39.98c-6.8,1.36-11.48,3.71-11.21,5.62Z"/>
          <path class="cls-17" d="m2683.17,2927.69l-1265.97,181.12c-24.08,3.41-36.44-83.79-12.36-87.2l1265.97-181.12c14.37-2.04,27.66,7.96,29.7,22.32l4.99,35.18c2.04,14.36-7.96,27.66-22.32,29.7Z"/>
          <polygon class="cls-5" points="2400.29 2916.27 1405.13 3059 1402.22 3038.45 2397.37 2895.72 2400.29 2916.27"/>
          <rect class="cls-10" x="2397.96" y="2878.78" width="11.7" height="88.43" transform="translate(-386.34 366.19) rotate(-8.07)"/>
          <rect class="cls-5" x="2663.55" y="2841.13" width="11.7" height="88.43" transform="translate(-378.49 403.16) rotate(-8.07)"/>
          <path class="cls-14" d="m2670.81,2840.49l-606.63,87.64c-66.33,67.31-114.31,79.93-148.18,75.6-23.52-3.01-54.34-15.98-100.25-6.82-44.34,8.85-45.91,27-82.24,29.95-53.86,4.37-74.27-33.58-113.96-19.6-21.34,7.52-17.31,19.15-46.38,38.77-10.78,7.28-55.69,37.57-109.39,27.19-31.24-6.04-54.09-23.64-69.43-40.17-7.92,24.32,3.78,78.46,22.85,75.75l1265.97-181.12c14.36-2.04,24.36-15.33,22.32-29.7l-4.99-35.19c-2.04-14.36-15.33-24.36-29.7-22.32Z"/>
        </g>
        <g>
          <path class="cls-24" d="m2524.82,3087.36s-77.56,35.47-78.81,41.11c-1.26,5.64,49.93-2.01,70.83-1.25,20.9.76,38.08-5.46,36.17-14.31-1.92-8.85-9.28-31.1-9.28-31.1l-18.9,5.54Z"/>
          <path class="cls-42" d="m2521.91,3058.73l4.81,34.95s12.3,4.35,20.55-.85l3.43-38.35-28.78,4.25Z"/>
          <path class="cls-43" d="m2887.56,3058.69l9.07,14.48c2.54,4.05,3.3,8.93,2.1,13.55-3.13,12.06-9.38,35.57-12.12,41.71-3.72,8.35-53.96,13.43-53.96,13.43,0,0-4.5-6.29,5.92-13.93,10.41-7.64,17.12-8.85,20.77-20.1,3.65-11.25,6.03-43.04,6.03-43.04l22.19-6.09Z"/>
          <path class="cls-18" d="m2849.88,3021.94c3.31,2.62,19.56,51.56,19.56,51.56,0,0,5.24,6.67,15.14-3.21,9.9-9.88,4.48-4.43,4.48-4.43l-1.98-48.17-37.2,4.25Z"/>
          <path class="cls-27" d="m2477.5,2356.51c-3.85,104.29-3.74,217.58,2.55,338.6,7.08,136.27,20.96,262.21,38.34,376.36,6.36.19,13.04.2,20.02,0,4.71-.14,9.28-.38,13.7-.7,8.82-23.7,19.24-54.86,28.55-92.08,9.78-39.13,15.66-74.23,19.83-107.78,14.67-118.15-2.88-128.41,9.04-215.97,10.56-77.55,25.84-80.61,43.51-190.72,19.18-119.47,4.64-137.35-2.42-143.81-30.06-27.48-100.49-8.55-173.13,36.09Z"/>
          <path class="cls-13" d="m2650.63,2320.41c-28.67-26.21-94.07-10.14-163.09,30.13,79.71,85.71,88.51,141.41,79.07,177.59-10.67,40.89-43.4,52.74-43.16,97.42.29,54.91,49.88,69.34,48.96,127.45-.6,38.42-22.38,38.08-27.41,85.55-5.95,56.17,22.55,75.45,13.43,117.01-3.92,17.88-15.18,41.26-47.35,65.4,2.36,17.05,4.79,33.94,7.31,50.5,6.36.19,13.04.21,20.02,0,4.71-.14,9.28-.38,13.69-.7,8.82-23.7,19.24-54.86,28.55-92.08,9.78-39.13,15.66-74.23,19.83-107.78,14.67-118.15-2.88-128.41,9.04-215.97,10.56-77.55,25.84-80.61,43.51-190.72,19.18-119.47,4.65-137.35-2.42-143.8Z"/>
          <path class="cls-27" d="m2526.74,2354.64c68.7,100,142.84,224.49,209.23,373.55,50.17,112.64,86.62,218.43,113.42,312.73,3.6,1.66,12.09,4.96,22.92,3.5,14.78-1.99,23.62-11.45,25.93-14.09,10.65-67.67,9.32-124.95,5.55-166.29-2.41-26.47-6.68-70.54-23.68-124.92-19.05-60.91-32.05-64.31-56.86-128.74-25.75-66.88-19.59-83.6-44.3-167.32-10.15-34.39-27.13-85.56-55.08-146.76-65.71,19.45-131.42,38.89-197.12,58.34Z"/>
          <path class="cls-16" d="m2308.3,2221.14c7.82,4.47,16.55,8.61,26.33,12.35,68.37,26.08,141.18-3.83,183.75-59.02.92-1.13,1.78-2.3,2.61-3.46.52-.67,1.01-1.38,1.5-2.05.7-.98,1.38-1.96,2.05-2.94,8.15-11.86,17.19-26.29,19.37-25.16.15.06.69.25.75.52.03.06.47.15.47.25v.03c0,8.49-42,79.92-60.75,160.67-10.02,43.27-7.64,63.53-26.39,92.34-4.26,6.53-9.61,13.33-7.77,21.05,4.63,19.34,48.79,24.36,79.47,27.86,32.36,3.65,62.55,3.31,92.4,2.88,47.78-.7,51.53-3.19,62.44,2.18,33.25,16.3,30.98,55.38,56.01,60.62,20.99,4.35,42.32-19.09,49.06-26.54,35.12-38.65,33.25-85.26,39.47-132.27,14.5-109.31,73.86-229.08,131.96-304.89,17.62-22.98,29.88-35.06,30.65-56.45,2.24-62.7-97.15-131.96-179.86-139.9-22.68-2.21-63.28-1.5-101.38,2.08-15.2,1.44-31.41,3.55-48.82,6.59-42.23,7.38-71.62,12.53-101.56,26.23-120.8,55.25-64.48,129.48-195.21,214.55-44.96,29.24-118.69-62.79-117.99-37.3.58,22.28-23.93,110.91,61.44,159.79Z"/>
          <path class="cls-25" d="m2742.61,1784.11s5.19,28.95,17.13,49.56c10.79,18.63,55.42,25.3,64.71,28.55,9.3,3.24-14.03,19.43-38.83,25.3-24.8,5.87-97.35,9.71-111.56,1.9-14.21-7.81,9.23-10.2,26.29-19.17,17.07-8.97,22.78-45.45,17.49-60.95-5.28-15.51,24.76-25.19,24.76-25.19Z"/>
          <g>
            <path class="cls-6" d="m2695.46,1775.73c-18-12.86-22.98-47.65-12.99-55.46,2.86-2.23,5.59-1.21,46.21,15.09,20.17,8.09,30.09,12.4,33.36,21.31,2,5.44,1.67,12.78-.53,18.57-1.14,2.98-3.35,6.69-8.26,13.76-4.36,6.28-4.07,6.07-5.41,7.89-3.21,4.38-9.41,11.77-20.77,20.32-.63-3.2-1.63-7.17-3.3-11.51-.64-1.67-3.24-8.18-7.35-13.67-7.08-9.45-15.11-12.14-20.95-16.31Z"/>
            <path class="cls-15" d="m2741.58,1808.81s-11.78,17.54-33.59,15.16c-19.53-2.13-20.48-46.18-7.56-54.95,4.31-2.93,12.72-3.85,19.44-1.65,3.97,1.3,5.25,3.03,11.77,5.03,6.01,1.84,7.76,1.24,9.53,2.87,2.21,2.03,3.69,6.85-.71,19.52,3.9-3.62,8.45-4.88,11.56-3.24.5.26,1.8,1.24,2.5,2.65,2.52,5.14-2.34,11.34-12.94,14.6Z"/>
          </g>
          <path class="cls-11" d="m2308.3,2221.14c7.82,4.47,16.55,8.61,26.33,12.35,68.37,26.08,141.18-3.83,183.75-59.02.92-1.13,1.78-2.3,2.61-3.46.52-.67,1.01-1.38,1.5-2.05.7-.98,1.38-1.96,2.05-2.94,8.15-11.86,17.19-26.29,19.37-25.16.15.06.25.25.31.52,0,.06.03.15.03.25,6.56-10.3,13.15-20.56,19.71-30.86-7.11-12.35-17.16-24.95-29.48-25.28-26.14-.64-32.88,54.46-77.84,90.68-27,21.76-48.73,21.36-103.34,33.65-13.15,2.97-28.19,6.65-44.99,11.34Z"/>
          <path class="cls-16" d="m2927.82,2419.67c33.07,2.95,107.52,4.3,160.17-44.42,87.66-81.09,44.17-235.45,13.66-301.84-34.98-76.11-90.66-118.72-124.5-144.61-41.98-32.12-67.6-51.73-98.43-47.34-79.73,11.35-134.94,174.76-91.17,221.54,14.33,15.31,28.52,6.64,69.98,19.85,13.5,4.3,114.29,36.4,131.84,110.63,12.28,51.95-18.99,112.79-74.64,153.65,4.36,10.84,8.73,21.69,13.09,32.53Z"/>
          <path class="cls-11" d="m2557.11,2392.76c37.44-23.66,42.98-47.64,84.91-63.85,54.47-21.05,80.64,5.69,107.65-15.9,32.14-25.69,3.69-70.46,27.74-148.14,4.08-13.19,35.09-113.33,106.23-126.09,33.17-5.95,76.99,6.76,93.87,34.87,13.21,22,.9,38.4,16.97,62.69,16.05,24.27,35.25,18.34,55.72,38.58,32.5,32.14,37.48,99.93,8.14,138.26-13.68,17.88-31.47,24.95-64.93,38.25-20.44,8.13-39.44,13.18-55.8,16.39,40.97-39.32,62.23-90.04,51.76-134.33-10.94-46.27-54.22-76.17-88.54-93.17-34.35,64.64-62.42,139.54-71.76,210.1-6.23,47.01-4.35,93.63-39.47,132.29-6.76,7.44-28.07,30.9-49.07,26.52-25.02-5.21-22.76-44.3-56-60.62-10.91-5.35-14.67-2.87-62.47-2.17-29.86.44-60.05.79-92.44-2.88-27.28-3.1-65.2-7.44-76.52-21.96,49.25-1.34,82.11-14.99,104.02-28.84Z"/>
          <g>
            <path class="cls-39" d="m2242.5,2051.39l658.73,450.95c15.93,10.97,37.97,7.42,49.19-7.97l7.05-9.65c11.25-15.41,7.36-36.84-8.7-47.78l-13.18-8.95-536.15-364.5-110.2-74.93-46.73,62.82Z"/>
            <path class="cls-19" d="m1625.19,1562.02c118.82-193.53,366.8-255.07,554.4-131.34,191.04,126,240.19,390.98,109.46,585.46-127.67,189.92-376.53,236.16-555.66,109.32-176.04-124.65-224.31-374.31-108.2-563.44Zm609.1,416.66c108.75-162.97,67.52-384.42-91.84-490.16-156.96-104.14-365.29-53.5-465.65,108.8-98.44,159.19-57.83,369.84,90.96,474.63,150.99,106.34,359.93,66.48,466.54-93.27Z"/>
            <path class="cls-12" d="m2242.5,2051.39l658.73,450.95c15.93,10.97,37.97,7.42,49.19-7.97l7.05-9.65c11.25-15.41,7.36-36.84-8.7-47.78l-13.15-8.98-.03.03c-32.36,32.51-53.72,37.11-68.03,33.49-33.53-8.49-23.6-60.46-74.44-101.8-50.29-40.88-90.9-15.23-147.93-60.71-34.51-27.52-22.19-38.95-57.25-73.89-69.87-69.63-142.35-47.78-175.57-98.92-8.73-13.45-15.45-33.04-12.93-62.67l-110.2-74.93-46.73,62.82Z"/>
            <path class="cls-28" d="m1606.08,1575.83c118.82-193.53,366.8-255.07,554.4-131.35,191.04,126,240.19,390.98,109.46,585.46-127.67,189.92-376.53,236.16-555.66,109.32-176.04-124.65-224.31-374.31-108.2-563.44Zm609.1,416.66c108.75-162.97,67.52-384.42-91.84-490.16-156.96-104.14-365.29-53.5-465.65,108.8-98.44,159.19-57.83,369.84,90.96,474.63,150.99,106.34,359.93,66.48,466.54-93.27Z"/>
            <path class="cls-35" d="m1624.3,1588.3c112.32-182.47,346.28-240.12,523.02-123.31,179.79,118.83,226.14,368.37,103.22,551.69-120.19,179.26-354.93,223.29-524.13,103.71-166.44-117.63-212.01-353.54-102.11-532.09Zm590.88,404.19c108.75-162.97,67.52-384.42-91.84-490.16-156.96-104.14-365.29-53.5-465.65,108.8-98.44,159.19-57.83,369.84,90.96,474.63,150.99,106.34,359.93,66.48,466.54-93.27Z"/>
          </g>
          <path class="cls-38" d="m2925.01,2412.7l-7.37-18.31s-12.02.73-21.89-6.34c-5.38-3.86-14.92-5-17.69-4.23-2.77.77-13.25.31-1.31,6.01,11.94,5.69,11.84,9.93,6.87,14.6-4.98,4.67-23.91,14.73-30.72,15.21-6.82.48,5.51,11.03,12.38,12.37,6.87,1.34,18.14,3.05,32.09-5.16,5.09-2.99,27.65-14.15,27.65-14.15Z"/>
          <path class="cls-33" d="m2317.41,2102.13c-18.13-12.48-20.95-39.62-47.6-41.53,0,0-22.17-5.36-10.97,19.19,11.2,24.55,65.37,43.25,58.57,22.34Z"/>
        </g>
      </g>
    </g>
  </g>
</svg>